<?xml version="1.0" encoding="utf-8"?>
<!-- Generator: Adobe Illustrator 23.0.3, SVG Export Plug-In . SVG Version: 6.00 Build 0)  -->
<svg version="1.1" id="Layer_1" xmlns="http://www.w3.org/2000/svg" xmlns:xlink="http://www.w3.org/1999/xlink" x="0px" y="0px"
	 viewBox="0 0 501 501" style="enable-background:new 0 0 501 501;" xml:space="preserve">
<style type="text/css">
	.st0{fill:url(#SVGID_1_);}
	.st1{fill:#C0BFBF;}
	.st2{fill:url(#SVGID_2_);}
</style>
<g>
	<linearGradient id="SVGID_1_" gradientUnits="userSpaceOnUse" x1="250.5" y1="500.75" x2="250.5" y2="0.25">
		<stop  offset="0" style="stop-color:#F3F3F3"/>
		<stop  offset="1" style="stop-color:#F5F6F6"/>
	</linearGradient>
	<path class="st0" d="M250.5,500.8c-66.8,0-129.7-26-177-73.3c-47.3-47.3-73.3-110.1-73.3-177c0-66.8,26-129.7,73.3-177
		s110.1-73.3,177-73.3c66.8,0,129.7,26,177,73.3c47.3,47.3,73.3,110.1,73.3,177c0,66.8-26,129.7-73.3,177
		C380.2,474.7,317.3,500.8,250.5,500.8z"/>
	<path class="st1" d="M250.5,0.5c138.1,0,250,111.9,250,250s-111.9,250-250,250s-250-111.9-250-250S112.4,0.5,250.5,0.5 M250.5,0
		c-33.8,0-66.6,6.6-97.5,19.7c-29.8,12.6-56.6,30.7-79.6,53.7S32.3,123.2,19.7,153C6.6,183.9,0,216.7,0,250.5s6.6,66.6,19.7,97.5
		c12.6,29.8,30.7,56.6,53.7,79.6s49.8,41.1,79.6,53.7c30.9,13.1,63.7,19.7,97.5,19.7s66.6-6.6,97.5-19.7
		c29.8-12.6,56.6-30.7,79.6-53.7s41.1-49.8,53.7-79.6c13.1-30.9,19.7-63.7,19.7-97.5s-6.6-66.6-19.7-97.5
		c-12.6-29.8-30.7-56.6-53.7-79.6S377.8,32.3,348,19.7C317.1,6.6,284.3,0,250.5,0L250.5,0z"/>
</g>
<linearGradient id="SVGID_2_" gradientUnits="userSpaceOnUse" x1="243.9556" y1="376.4741" x2="243.9556" y2="104.9723">
	<stop  offset="0" style="stop-color:#4EC2BC"/>
	<stop  offset="1" style="stop-color:#3D7CBF"/>
</linearGradient>
<path class="st2" d="M154.4,196.8h-11.1l-14.7-50.3h-0.2l-14.6,50.3h-11.1l-18.2-65h10.8l13,52.9h0.2l14.7-52.9h10.5l14.8,52.9h0.2
	l13-52.9h10.8L154.4,196.8z M178.3,178.4c0-11.1,8.6-18.1,23.6-19l18.6-1.1v-5.4c0-7.9-5.2-12.7-14.2-12.7c-8.4,0-13.6,3.9-15,10.3
	h-10.5c0.8-11.2,10.4-19.9,25.8-19.9c15.2,0,24.9,8.2,24.9,21.2v44.9H221v-11.2h-0.2c-3.9,7.4-12.1,12.3-20.9,12.3
	C186.9,197.9,178.3,190.1,178.3,178.4z M220.4,172.1v-5.3l-17.4,1.1c-8.8,0.6-13.8,4.4-13.8,10.6c0,6.2,5.2,10.2,13,10.2
	C212.6,188.7,220.4,181.5,220.4,172.1z M260.3,116.1v15.7h12.6v8.9h-12.6v38.6c0,5.9,2.5,8.6,8.1,8.6c1.2,0,3.8-0.2,4.5-0.3v9.1
	c-1.3,0.3-4.3,0.5-6.9,0.5c-11.9,0-16.6-4.9-16.6-17.4v-39.2h-9.7v-8.9h9.7v-15.7H260.3z M326.7,153.1c-1.6-7.1-7.1-12.9-16.6-12.9
	c-11.2,0-18.9,9.3-18.9,24.1c0,15.1,7.8,24.1,19,24.1c8.9,0,14.7-4.7,16.6-12.5h10.7c-1.7,12.9-12.6,22.1-27.3,22.1
	c-18,0-30-12.7-30-33.6c0-20.5,11.9-33.6,29.9-33.6c16.2,0,25.9,10.8,27.3,22.4H326.7z M348.8,106.6h10.9v35.6h0.2
	c3.6-7.2,10.8-11.5,20.6-11.5c14.2,0,22.9,9.6,22.9,24.1v42h-10.9v-40c0-10.3-5.2-16.5-15.4-16.5c-10.8,0-17.5,7.4-17.5,18.6v37.9
	h-10.9V106.6z M107.2,293.8c0-50.3,29.4-81.4,73-81.4c43.4,0,72.8,31.2,72.8,81.4c0,50.1-29.4,81.4-72.8,81.4
	C136.6,375.2,107.2,343.9,107.2,293.8z M226.2,293.8c0-37.1-18.2-58.3-46-58.3S134,256.7,134,293.8s18.3,58.3,46.2,58.3
	S226.2,330.9,226.2,293.8z M331.1,212.4c34.5,0,57.5,20.3,58.6,48.1h-25.1c-2-16.5-14.1-26.6-33.5-26.6c-19.2,0-31.9,9.5-31.9,23.3
	c0,10.9,8,18.3,25.6,22.6l25,6.1c31.8,7.7,43.3,20.1,43.3,42.7c0,27.4-25.9,46.8-61,46.8c-36.9,0-59.9-18.6-63-48.1h26.3
	c3.2,18,15.3,26.6,36.6,26.6s34.5-9.1,34.5-23.3c0-11.4-6.2-17.9-24.2-22.3l-25-6.1c-29.7-7.1-44-20.9-44-43.6
	C273.3,231.6,297.1,212.4,331.1,212.4z"/>
</svg>
